<svg xmlns="http://www.w3.org/2000/svg" viewBox="0 0 720 318" width="100%" role="img" aria-label="Figure 2. FunctionChat-Bench SingleCall call accuracy by tool condition (percent)" font-family="IBM Plex Mono, Menlo, monospace" font-size="12"><rect width="720" height="318" fill="#0e0f11"/><text x="16" y="22" fill="#f2f0ea" font-size="13" font-weight="500">Figure 2. FunctionChat-Bench SingleCall call accuracy by tool condition (percent)</text><line x1="56" x2="696" y1="242.0" y2="242.0" stroke="#262a30"/><text x="48" y="246.0" fill="#7f7b72" text-anchor="end" font-size="11">0</text><line x1="56" x2="696" y1="191.5" y2="191.5" stroke="#262a30"/><text x="48" y="195.5" fill="#7f7b72" text-anchor="end" font-size="11">25</text><line x1="56" x2="696" y1="141.0" y2="141.0" stroke="#262a30"/><text x="48" y="145.0" fill="#7f7b72" text-anchor="end" font-size="11">50</text><line x1="56" x2="696" y1="90.5" y2="90.5" stroke="#262a30"/><text x="48" y="94.5" fill="#7f7b72" text-anchor="end" font-size="11">75</text><line x1="56" x2="696" y1="40.0" y2="40.0" stroke="#262a30"/><text x="48" y="44.0" fill="#7f7b72" text-anchor="end" font-size="11">100</text><rect x="72.0" y="189.5" width="22.0" height="52.5" rx="2" fill="#8fd400"/><text x="83.0" y="185.5" fill="#b8b4aa" text-anchor="middle" font-size="10">26</text><rect x="96.0" y="145.0" width="22.0" height="97.0" rx="2" fill="#a6a298"/><text x="107.0" y="141.0" fill="#b8b4aa" text-anchor="middle" font-size="10">48</text><rect x="120.0" y="235.9" width="22.0" height="6.1" rx="2" fill="#6b675f"/><text x="131.0" y="231.9" fill="#b8b4aa" text-anchor="middle" font-size="10">3</text><rect x="144.0" y="242.0" width="22.0" height="1.5" rx="2" fill="#45423c"/><text x="155.0" y="238.0" fill="#b8b4aa" text-anchor="middle" font-size="10">0</text><text x="120.0" y="264" fill="#b8b4aa" text-anchor="middle">exact</text><rect x="200.0" y="217.8" width="22.0" height="24.2" rx="2" fill="#8fd400"/><text x="211.0" y="213.8" fill="#b8b4aa" text-anchor="middle" font-size="10">12</text><rect x="224.0" y="143.0" width="22.0" height="99.0" rx="2" fill="#a6a298"/><text x="235.0" y="139.0" fill="#b8b4aa" text-anchor="middle" font-size="10">49</text><rect x="248.0" y="231.9" width="22.0" height="10.1" rx="2" fill="#6b675f"/><text x="259.0" y="227.9" fill="#b8b4aa" text-anchor="middle" font-size="10">5</text><rect x="272.0" y="242.0" width="22.0" height="1.5" rx="2" fill="#45423c"/><text x="283.0" y="238.0" fill="#b8b4aa" text-anchor="middle" font-size="10">0</text><text x="248.0" y="264" fill="#b8b4aa" text-anchor="middle">4_random</text><rect x="328.0" y="221.8" width="22.0" height="20.2" rx="2" fill="#8fd400"/><text x="339.0" y="217.8" fill="#b8b4aa" text-anchor="middle" font-size="10">10</text><rect x="352.0" y="151.1" width="22.0" height="90.9" rx="2" fill="#a6a298"/><text x="363.0" y="147.1" fill="#b8b4aa" text-anchor="middle" font-size="10">45</text><rect x="376.0" y="240.0" width="22.0" height="2.0" rx="2" fill="#6b675f"/><text x="387.0" y="236.0" fill="#b8b4aa" text-anchor="middle" font-size="10">1</text><rect x="400.0" y="242.0" width="22.0" height="1.5" rx="2" fill="#45423c"/><text x="411.0" y="238.0" fill="#b8b4aa" text-anchor="middle" font-size="10">0</text><text x="376.0" y="264" fill="#b8b4aa" text-anchor="middle">4_close</text><rect x="456.0" y="227.9" width="22.0" height="14.1" rx="2" fill="#8fd400"/><text x="467.0" y="223.9" fill="#b8b4aa" text-anchor="middle" font-size="10">7</text><rect x="480.0" y="167.3" width="22.0" height="74.7" rx="2" fill="#a6a298"/><text x="491.0" y="163.3" fill="#b8b4aa" text-anchor="middle" font-size="10">37</text><rect x="504.0" y="240.0" width="22.0" height="2.0" rx="2" fill="#6b675f"/><text x="515.0" y="236.0" fill="#b8b4aa" text-anchor="middle" font-size="10">1</text><rect x="528.0" y="242.0" width="22.0" height="1.5" rx="2" fill="#45423c"/><text x="539.0" y="238.0" fill="#b8b4aa" text-anchor="middle" font-size="10">0</text><text x="504.0" y="264" fill="#b8b4aa" text-anchor="middle">8_random</text><rect x="584.0" y="238.0" width="22.0" height="4.0" rx="2" fill="#8fd400"/><text x="595.0" y="234.0" fill="#b8b4aa" text-anchor="middle" font-size="10">2</text><rect x="608.0" y="167.3" width="22.0" height="74.7" rx="2" fill="#a6a298"/><text x="619.0" y="163.3" fill="#b8b4aa" text-anchor="middle" font-size="10">37</text><rect x="632.0" y="240.0" width="22.0" height="2.0" rx="2" fill="#6b675f"/><text x="643.0" y="236.0" fill="#b8b4aa" text-anchor="middle" font-size="10">1</text><rect x="656.0" y="242.0" width="22.0" height="1.5" rx="2" fill="#45423c"/><text x="667.0" y="238.0" fill="#b8b4aa" text-anchor="middle" font-size="10">0</text><text x="632.0" y="264" fill="#b8b4aa" text-anchor="middle">8_close</text><rect x="56" y="278" width="10" height="10" rx="2" fill="#8fd400"/><text x="71" y="287" fill="#b8b4aa" font-size="11">Songgot (ours)</text><rect x="187" y="278" width="10" height="10" rx="2" fill="#a6a298"/><text x="202" y="287" fill="#b8b4aa" font-size="11">Qwen3-0.6B</text><rect x="290" y="278" width="10" height="10" rx="2" fill="#6b675f"/><text x="305" y="287" fill="#b8b4aa" font-size="11">FunctionGemma-270M</text><rect x="449" y="278" width="10" height="10" rx="2" fill="#45423c"/><text x="464" y="287" fill="#b8b4aa" font-size="11">Needle 2</text><text x="56" y="306" fill="#7f7b72" font-size="11">Exact match, 100 items per condition. Needle 2 is English only and answered none.</text></svg>