<svg xmlns="http://www.w3.org/2000/svg" viewBox="0 0 720 318" width="100%" role="img" aria-label="Figure 2. FunctionChat-Bench SingleCall call accuracy by tool condition (percent)" font-family="IBM Plex Mono, Menlo, monospace" font-size="12"><rect width="720" height="318" fill="#0e0f11"/><text x="16" y="22" fill="#f2f0ea" font-size="13" font-weight="500">Figure 2. FunctionChat-Bench SingleCall call accuracy by tool condition (percent)</text><line x1="56" x2="696" y1="242.0" y2="242.0" stroke="#262a30"/><text x="48" y="246.0" fill="#7f7b72" text-anchor="end" font-size="11">0</text><line x1="56" x2="696" y1="191.5" y2="191.5" stroke="#262a30"/><text x="48" y="195.5" fill="#7f7b72" text-anchor="end" font-size="11">25</text><line x1="56" x2="696" y1="141.0" y2="141.0" stroke="#262a30"/><text x="48" y="145.0" fill="#7f7b72" text-anchor="end" font-size="11">50</text><line x1="56" x2="696" y1="90.5" y2="90.5" stroke="#262a30"/><text x="48" y="94.5" fill="#7f7b72" text-anchor="end" font-size="11">75</text><line x1="56" x2="696" y1="40.0" y2="40.0" stroke="#262a30"/><text x="48" y="44.0" fill="#7f7b72" text-anchor="end" font-size="11">100</text><rect x="84.0" y="145.0" width="22.0" height="97.0" rx="2" fill="#a6a298"/><text x="95.0" y="141.0" fill="#b8b4aa" text-anchor="middle" font-size="10">48</text><rect x="108.0" y="235.9" width="22.0" height="6.1" rx="2" fill="#6b675f"/><text x="119.0" y="231.9" fill="#b8b4aa" text-anchor="middle" font-size="10">3</text><rect x="132.0" y="242.0" width="22.0" height="1.5" rx="2" fill="#45423c"/><text x="143.0" y="238.0" fill="#b8b4aa" text-anchor="middle" font-size="10">0</text><text x="120.0" y="264" fill="#b8b4aa" text-anchor="middle">exact</text><rect x="212.0" y="143.0" width="22.0" height="99.0" rx="2" fill="#a6a298"/><text x="223.0" y="139.0" fill="#b8b4aa" text-anchor="middle" font-size="10">49</text><rect x="236.0" y="231.9" width="22.0" height="10.1" rx="2" fill="#6b675f"/><text x="247.0" y="227.9" fill="#b8b4aa" text-anchor="middle" font-size="10">5</text><rect x="260.0" y="242.0" width="22.0" height="1.5" rx="2" fill="#45423c"/><text x="271.0" y="238.0" fill="#b8b4aa" text-anchor="middle" font-size="10">0</text><text x="248.0" y="264" fill="#b8b4aa" text-anchor="middle">4_random</text><rect x="340.0" y="151.1" width="22.0" height="90.9" rx="2" fill="#a6a298"/><text x="351.0" y="147.1" fill="#b8b4aa" text-anchor="middle" font-size="10">45</text><rect x="364.0" y="240.0" width="22.0" height="2.0" rx="2" fill="#6b675f"/><text x="375.0" y="236.0" fill="#b8b4aa" text-anchor="middle" font-size="10">1</text><rect x="388.0" y="242.0" width="22.0" height="1.5" rx="2" fill="#45423c"/><text x="399.0" y="238.0" fill="#b8b4aa" text-anchor="middle" font-size="10">0</text><text x="376.0" y="264" fill="#b8b4aa" text-anchor="middle">4_close</text><rect x="468.0" y="167.3" width="22.0" height="74.7" rx="2" fill="#a6a298"/><text x="479.0" y="163.3" fill="#b8b4aa" text-anchor="middle" font-size="10">37</text><rect x="492.0" y="240.0" width="22.0" height="2.0" rx="2" fill="#6b675f"/><text x="503.0" y="236.0" fill="#b8b4aa" text-anchor="middle" font-size="10">1</text><rect x="516.0" y="242.0" width="22.0" height="1.5" rx="2" fill="#45423c"/><text x="527.0" y="238.0" fill="#b8b4aa" text-anchor="middle" font-size="10">0</text><text x="504.0" y="264" fill="#b8b4aa" text-anchor="middle">8_random</text><rect x="596.0" y="167.3" width="22.0" height="74.7" rx="2" fill="#a6a298"/><text x="607.0" y="163.3" fill="#b8b4aa" text-anchor="middle" font-size="10">37</text><rect x="620.0" y="240.0" width="22.0" height="2.0" rx="2" fill="#6b675f"/><text x="631.0" y="236.0" fill="#b8b4aa" text-anchor="middle" font-size="10">1</text><rect x="644.0" y="242.0" width="22.0" height="1.5" rx="2" fill="#45423c"/><text x="655.0" y="238.0" fill="#b8b4aa" text-anchor="middle" font-size="10">0</text><text x="632.0" y="264" fill="#b8b4aa" text-anchor="middle">8_close</text><rect x="56" y="278" width="10" height="10" rx="2" fill="#a6a298"/><text x="71" y="287" fill="#b8b4aa" font-size="11">Qwen3-0.6B</text><rect x="159" y="278" width="10" height="10" rx="2" fill="#6b675f"/><text x="174" y="287" fill="#b8b4aa" font-size="11">FunctionGemma-270M</text><rect x="318" y="278" width="10" height="10" rx="2" fill="#45423c"/><text x="333" y="287" fill="#b8b4aa" font-size="11">Needle 2</text><text x="56" y="306" fill="#7f7b72" font-size="11">Exact match, 100 items per condition. Needle 2 is English only and answered none.</text></svg>