<svg xmlns="http://www.w3.org/2000/svg" viewBox="0 0 720 300" width="100%" role="img" aria-label="Figure 3. Songgot-nano pretraining loss, Apple M5 Max, MLX bf16, from the run log" font-family="IBM Plex Mono, Menlo, monospace" font-size="12"><rect width="720" height="300" fill="#0e0f11"/><text x="16" y="22" fill="#f2f0ea" font-size="13" font-weight="500">Figure 3. Songgot-nano pretraining loss, Apple M5 Max, MLX bf16, from the run log</text><line x1="56" x2="696" y1="250.0" y2="250.0" stroke="#262a30"/><text x="48" y="254.0" fill="#7f7b72" text-anchor="end" font-size="11">3.3</text><line x1="56" x2="696" y1="197.5" y2="197.5" stroke="#262a30"/><text x="48" y="201.5" fill="#7f7b72" text-anchor="end" font-size="11">5.2</text><line x1="56" x2="696" y1="145.0" y2="145.0" stroke="#262a30"/><text x="48" y="149.0" fill="#7f7b72" text-anchor="end" font-size="11">7.0</text><line x1="56" x2="696" y1="92.5" y2="92.5" stroke="#262a30"/><text x="48" y="96.5" fill="#7f7b72" text-anchor="end" font-size="11">8.9</text><line x1="56" x2="696" y1="40.0" y2="40.0" stroke="#262a30"/><text x="48" y="44.0" fill="#7f7b72" text-anchor="end" font-size="11">10.7</text><text x="56.0" y="270" fill="#7f7b72" text-anchor="middle" font-size="11">0</text><text x="216.0" y="270" fill="#7f7b72" text-anchor="middle" font-size="11">1,310</text><text x="376.0" y="270" fill="#7f7b72" text-anchor="middle" font-size="11">2,620</text><text x="536.0" y="270" fill="#7f7b72" text-anchor="middle" font-size="11">3,930</text><text x="696.0" y="270" fill="#7f7b72" text-anchor="middle" font-size="11">5,240</text><path d="M58.4,45.7 L60.9,84.6 L63.3,113.5 L65.8,131.1 L68.2,140.5 L70.7,147.2 L73.1,150.4 L75.5,156.6 L78.0,161.0 L80.4,166.2 L82.9,167.8 L85.3,170.4 L87.8,174.0 L90.2,176.0 L92.6,177.7 L95.1,180.7 L97.5,182.0 L100.0,184.1 L102.4,185.5 L104.9,187.4 L107.3,189.3 L109.7,191.0 L112.2,192.8 L114.6,194.2 L117.1,194.3 L119.5,195.7 L122.0,199.3 L124.4,199.2 L126.8,199.3 L129.3,202.6 L131.7,204.1 L134.2,205.6 L136.6,207.8 L139.1,209.3 L141.5,210.6 L143.9,212.2 L146.4,212.1 L148.8,213.3 L151.3,214.1 L153.7,216.8 L156.2,216.5 L158.6,218.5 L161.0,218.3 L163.5,218.9 L165.9,217.2 L168.4,219.7 L170.8,219.3 L173.3,220.6 L175.7,221.0 L178.1,220.2 L180.6,222.1 L183.0,223.2 L185.5,222.1 L187.9,222.7 L190.4,225.0 L192.8,224.5 L195.2,224.5 L197.7,224.5 L200.1,225.2 L202.6,224.4 L205.0,225.3 L207.5,225.1 L209.9,225.4 L212.3,225.7 L214.8,227.8 L217.2,226.3 L219.7,227.1 L222.1,226.2 L224.5,227.3 L227.0,228.3 L229.4,227.5 L231.9,228.1 L234.3,227.2 L236.8,227.9 L239.2,228.3 L241.6,229.1 L244.1,230.0 L246.5,228.4 L249.0,228.7 L251.4,229.1 L253.9,229.7 L256.3,229.6 L258.7,229.9 L261.2,230.7 L263.6,229.9 L266.1,230.3 L268.5,231.4 L271.0,230.9 L273.4,230.2 L275.8,231.3 L278.3,229.4 L280.7,229.8 L283.2,231.7 L285.6,232.0 L288.1,231.7 L290.5,232.9 L292.9,232.3 L295.4,232.1 L297.8,232.4 L300.3,232.8 L302.7,232.5 L305.2,233.1 L307.6,231.8 L310.0,233.2 L312.5,234.0 L314.9,234.1 L317.4,233.1 L319.8,234.1 L322.3,233.2 L324.7,233.8 L327.1,234.2 L329.6,234.2 L332.0,234.4 L334.5,234.3 L336.9,233.4 L339.4,234.6 L341.8,233.2 L344.2,233.9 L346.7,234.8 L349.1,233.7 L351.6,233.7 L354.0,234.1 L356.5,236.0 L358.9,235.9 L361.3,234.5 L363.8,235.2 L366.2,235.3 L368.7,235.1 L371.1,235.2 L373.6,235.8 L376.0,235.7 L378.4,235.8 L380.9,235.5 L383.3,235.7 L385.8,235.7 L388.2,234.6 L390.7,235.9 L393.1,237.6 L395.5,236.4 L398.0,237.0 L400.4,235.8 L402.9,236.7 L405.3,236.6 L407.8,238.4 L410.2,237.2 L412.6,237.0 L415.1,237.1 L417.5,236.7 L420.0,235.9 L422.4,236.8 L424.9,237.2 L427.3,237.6 L429.7,238.1 L432.2,238.0 L434.6,237.3 L437.1,238.1 L439.5,237.9 L442.0,237.3 L444.4,238.9 L446.8,238.8 L449.3,238.0 L451.7,237.5 L454.2,238.2 L456.6,238.8 L459.1,238.4 L461.5,239.0 L463.9,239.7 L466.4,237.1 L468.8,238.1 L471.3,238.9 L473.7,239.3 L476.2,238.6 L478.6,237.9 L481.0,240.2 L483.5,240.1 L485.9,238.2 L488.4,239.9 L490.8,239.1 L493.3,238.7 L495.7,240.0 L498.1,239.6 L500.6,238.9 L503.0,238.4 L505.5,239.6 L507.9,241.6 L510.4,239.9 L512.8,240.8 L515.2,240.9 L517.7,241.4 L520.1,241.0 L522.6,239.4 L525.0,239.7 L527.5,240.7 L529.9,240.1 L532.3,241.3 L534.8,240.0 L537.2,239.9 L539.7,240.4 L542.1,240.9 L544.5,240.6 L547.0,240.2 L549.4,240.4 L551.9,240.7 L554.3,240.1 L556.8,241.6 L559.2,241.4 L561.6,241.2 L564.1,240.9 L566.5,241.5 L569.0,241.5 L571.4,242.1 L573.9,241.5 L576.3,241.8 L578.7,241.2 L581.2,241.9 L583.6,240.9 L586.1,242.2 L588.5,240.7 L591.0,241.1 L593.4,241.7 L595.8,242.4 L598.3,241.3 L600.7,242.3 L603.2,243.0 L605.6,242.8 L608.1,242.8 L610.5,242.9 L612.9,242.2 L615.4,242.8 L617.8,243.0 L620.3,242.5 L622.7,242.0 L625.2,243.7 L627.6,241.9 L630.0,243.7 L632.5,242.8 L634.9,242.4 L637.4,242.6 L639.8,243.3 L642.3,241.5 L644.7,242.1 L647.1,242.7 L649.6,241.9 L652.0,241.4 L654.5,242.0 L656.9,243.3 L659.4,243.1 L661.8,243.0 L664.2,242.4 L666.7,243.1 L669.1,242.1 L671.6,241.8 L674.0,243.7 L676.5,243.2 L678.9,243.6 L681.3,243.9 L683.8,242.9 L686.2,242.4 L688.7,244.1 L691.1,243.8 L693.6,244.3 L696.0,243.1" fill="none" stroke="#d8ff3d" stroke-width="2" stroke-linejoin="round"/><circle cx="696.0" cy="243.1" r="4" fill="#d8ff3d"/><text x="688.0" y="233.1" fill="#f2f0ea" text-anchor="end">loss 3.59 at step 5,240</text><text x="56" y="288" fill="#7f7b72" font-size="11">optimizer step (32 sequences x 1,024 tokens each)</text><text x="696" y="288" fill="#7f7b72" text-anchor="end" font-size="11">run in progress, 5,240 of 9,765 steps</text></svg>